<?xml version="1.0" standalone="no"?><!DOCTYPE svg PUBLIC "-//W3C//DTD SVG 1.1//EN" "http://www.w3.org/Graphics/SVG/1.1/DTD/svg11.dtd"><svg class="icon" width="200px" height="200.00px" viewBox="0 0 1024 1024" version="1.1" xmlns="http://www.w3.org/2000/svg"><path d="M863.02208 472.42752c-117.44256-255.488-297.94304-137.9584-341.376-104.46336 1.09568-32.01024 8.12032-83.4048 34.98496-147.22048 46.7968 106.73152 194.4832-7.45984 194.4832-7.45984l-47.10912-53.00736c-45.8496-42.32704-88.14592-25.41056-114.688-5.02784 15.75424-27.21792 35.06176-55.90528 58.75712-85.69344a11.30496 11.30496 0 0 0-17.71008-14.07488C521.50272 192.38912 500.80768 306.23744 498.7392 365.23008c-49.00352-36.5312-223.31904-141.7728-337.76128 107.20256C26.69568 764.55424 323.5328 1117.93152 512 910.6176c188.47232 207.3088 485.30432-146.06848 351.02208-438.19008z" /></svg>